#!OML:ASF E:\motion texture\Top Level 1\Subject 1\Session 1\male.ASF
:FULLY-SPECIFIED
:DEGREES
520
root -20.9544 17.8975 4.98455 123.455 -79.2892 -114.963
lowerback 0.209403 2.42496 7.10796
upperback -1.50192 3.26328 2.99278
thorax -1.44576 1.52024 -0.928442
lowerneck -21.4295 -2.00574 -4.37316
upperneck 20.1368 -2.4386 4.09706
head 10.0593 -0.999483 1.80674
rclavicle -2.49288e-014 -4.55217e-014
rhumerus -26.0424 -7.94436 -82.5512
rradius 36.6304
rwrist 15.5595
rhand -18.1152 -27.4362
rfingers 7.12502
rthumb 8.15913 -57.2587
lclavicle -2.49288e-014 -4.55217e-014
lhumerus -37.65 15.269 82.3526
lradius 40.2225
lwrist -19.004
lhand -13.3267 23.0028
lfingers 7.12502
lthumb 12.7783 52.5917
rfemur -3.90872 2.07625 34.1522
rtibia 14.3265
rfoot -12.8232 -13.287
rtoes 9.15573
lfemur -33.5607 3.27707 -5.84473
ltibia 34.8911
lfoot -5.66436 6.36216
ltoes -13.5743
521
root -21.0882 17.8806 4.97361 124.247 -79.1739 -115.66
lowerback 0.17276 2.49101 7.13739
upperback -1.52538 3.34965 2.94104
thorax -1.439 1.56272 -0.996954
lowerneck -21.4657 -1.99534 -4.36485
upperneck 20.153 -2.43485 4.13311
head 10.0719 -0.992348 1.81883
rclavicle -4.20864e-015 -5.6107e-014
rhumerus -25.932 -7.01091 -83.0417
rradius 37.5142
rwrist 15.233
rhand -18.1521 -27.4474
rfingers 7.12502
rthumb 8.12356 -57.2713
lclavicle -4.20864e-015 -5.6107e-014
lhumerus -37.5588 15.1386 82.5391
lradius 40.3354
lwrist -18.8129
lhand -13.4372 23.3024
lfingers 7.12502
lthumb 12.6717 52.898
rfemur -3.6046 2.13983 34.2171
rtibia 14.5098
rfoot -13.129 -13.3111
rtoes 8.40485
lfemur -33.7807 3.07464 -5.69479
ltibia 33.4912
lfoot -5.47116 6.42242
ltoes -13.3943
522
root -21.2231 17.8634 4.96346 125.017 -79.0651 -116.336
lowerback 0.137764 2.55436 7.15896
upperback -1.54704 3.43245 2.88932
thorax -1.43174 1.60361 -1.06105
lowerneck -21.4958 -1.98517 -4.3555
upperneck 20.1591 -2.43197 4.17059
head 10.0798 -0.985377 1.83107
rclavicle -2.12451e-014 1.30204e-014
rhumerus -25.8253 -6.07356 -83.5253
rradius 38.4308
rwrist 14.9303
rhand -18.1818 -27.4408
rfingers 7.12502
rthumb 8.09488 -57.2657
lclavicle -2.12451e-014 1.30204e-014
lhumerus -37.4403 14.9731 82.7557
lradius 40.4656
lwrist -18.6166
lhand -13.5571 23.5989
lfingers 7.12502
lthumb 12.5561 53.2016
rfemur -3.31618 2.20105 34.2682
rtibia 14.7318
rfoot -13.4273 -13.3388
rtoes 7.61695
lfemur -33.9782 2.83702 -5.53689
ltibia 32.1339
lfoot -5.25696 6.49827
ltoes -13.2285
523
root -21.3589 17.8459 4.95411 125.764 -78.9642 -116.993
lowerback 0.104213 2.61494 7.17206
upperback -1.56614 3.51154 2.83761
thorax -1.42319 1.64289 -1.12037
lowerneck -21.5205 -1.97588 -4.34733
upperneck 20.1551 -2.43093 4.21287
head 10.0833 -0.978779 1.84487
rclavicle 9.36384e-015 1.21383e-014
rhumerus -25.7192 -5.13569 -84.0007
rradius 39.3771
rwrist 14.6511
rhand -18.2048 -27.4185
rfingers 7.12502
rthumb 8.07269 -57.2443
lclavicle 9.36384e-015 1.21383e-014
lhumerus -37.2904 14.7701 83.0045
lradius 40.6127
lwrist -18.4177
lhand -13.6735 23.9133
lfingers 7.12502
lthumb 12.444 53.5229
rfemur -3.04439 2.25623 34.3041
rtibia 14.9952
rfoot -13.7151 -13.3679
rtoes 6.78876
lfemur -34.154 2.5649 -5.3727
ltibia 30.8279
lfoot -5.02513 6.5829
ltoes -13.0722
524
root -21.4959 17.8284 4.94554 126.482 -78.8707 -117.626
lowerback 0.0719857 2.67228 7.17782
upperback -1.58328 3.58632 2.78652
thorax -1.41394 1.68021 -1.17494
lowerneck -21.5353 -1.96667 -4.33986
upperneck 20.1395 -2.43067 4.25889
head 10.081 -0.972232 1.85991
rclavicle 2.35218e-014 4.06328e-014
rhumerus -25.6139 -4.20023 -84.4664
rradius 40.3525
rwrist 14.4013
rhand -18.2188 -27.3813
rfingers 7.12502
rthumb 8.0592 -57.2077
lclavicle 2.35218e-014 4.06328e-014
lhumerus -37.1103 14.5264 83.2866
lradius 40.7771
lwrist -18.2137
lhand -13.7951 24.2292
lfingers 7.12502
lthumb 12.3267 53.8459
rfemur -2.79016 2.30326 34.3254
rtibia 15.3025
rfoot -13.9899 -13.3966
rtoes 5.92349
lfemur -34.3089 2.261 -5.20277
ltibia 29.5804
lfoot -4.77522 6.6715
ltoes -12.9156
525
root -21.6341 17.8108 4.93778 127.17 -78.7844 -118.234
lowerback 0.0432281 2.72634 7.17684
upperback -1.59734 3.6569 2.73663
thorax -1.4041 1.71563 -1.22459
lowerneck -21.5391 -1.95909 -4.3277
upperneck 20.1088 -2.43295 4.30066
head 10.0712 -0.967074 1.87214
rclavicle -7.31776e-015 -1.17034e-014
rhumerus -25.5055 -3.26859 -84.9216
rradius 41.3542
rwrist 14.18
rhand -18.2242 -27.332
rfingers 7.12502
rthumb 8.05391 -57.1586
lclavicle -7.31776e-015 -1.17034e-014
lhumerus -36.8941 14.2407 83.6041
lradius 40.9551
lwrist -18.0053
lhand -13.9285 24.5522
lfingers 7.12502
lthumb 12.198 54.1766
rfemur -2.55365 2.34035 34.3322
rtibia 15.6574
rfoot -14.2489 -13.4228
rtoes 5.0257
lfemur -34.4417 1.92973 -5.02871
ltibia 28.3989
lfoot -4.51079 6.76377
ltoes -12.737
